<svg xmlns="http://www.w3.org/2000/svg" viewBox="0 0 900 480" role="img" aria-label="Ablations fijas de Event-JEPA">
<style>.title{font:700 24px Inter,Segoe UI,sans-serif;fill:#10272F}.label{font:14px Inter,Segoe UI,sans-serif;fill:#344D56}.value{font:700 14px Inter,Segoe UI,sans-serif;fill:#10272F}.note{font:11px Inter,Segoe UI,sans-serif;fill:#62757C}.animated-bar{transform-origin:225px center;animation:grow .9s ease both}@keyframes grow{from{transform:scaleX(0)}to{transform:scaleX(1)}}</style>
<rect width="900" height="480" fill="#F5F7F5"/><text x="42" y="52" class="title">Ablations fijas de Event-JEPA</text><text x="205" y="124" text-anchor="end" class="label">Solo finalización + SIGReg</text><rect x="225" y="105" width="570" height="28" rx="7" fill="#E2E8E6"/><rect class="animated-bar" x="225" y="105" width="496.0" height="28" rx="7" fill="#18A999"/><text x="731.0" y="124" class="value">763.03</text><text x="205" y="182" text-anchor="end" class="label">Principal multi-horizonte</text><rect x="225" y="163" width="570" height="28" rx="7" fill="#E2E8E6"/><rect class="animated-bar" x="225" y="163" width="496.3" height="28" rx="7" fill="#2F6BFF"/><text x="731.3" y="182" class="value">763.51</text><text x="205" y="240" text-anchor="end" class="label">Pares temporales barajados</text><rect x="225" y="221" width="570" height="28" rx="7" fill="#E2E8E6"/><rect class="animated-bar" x="225" y="221" width="496.6" height="28" rx="7" fill="#7C5CFC"/><text x="731.6" y="240" class="value">763.91</text><text x="205" y="298" text-anchor="end" class="label">Encoder aleatorio</text><rect x="225" y="279" width="570" height="28" rx="7" fill="#E2E8E6"/><rect class="animated-bar" x="225" y="279" width="502.3" height="28" rx="7" fill="#F2B134"/><text x="737.3" y="298" class="value">772.78</text><text x="205" y="356" text-anchor="end" class="label">Sin SIGReg</text><rect x="225" y="337" width="570" height="28" rx="7" fill="#E2E8E6"/><rect class="animated-bar" x="225" y="337" width="527.8" height="28" rx="7" fill="#D85C5C"/><text x="762.8" y="356" class="value">811.95</text><text x="42" y="455" class="note">Mismo split congelado y tres seeds. Test no seleccionó variantes.</text></svg>