<svg xmlns="http://www.w3.org/2000/svg" viewBox="0 0 900 480" role="img" aria-label="ETA a geofence - MAE en horas (menor es mejor)">
<style>.title{font:700 24px Inter,Segoe UI,sans-serif;fill:#10272F}.label{font:14px Inter,Segoe UI,sans-serif;fill:#344D56}.value{font:700 14px Inter,Segoe UI,sans-serif;fill:#10272F}.note{font:11px Inter,Segoe UI,sans-serif;fill:#62757C}.animated-bar{transform-origin:225px center;animation:grow .9s ease both}@keyframes grow{from{transform:scaleX(0)}to{transform:scaleX(1)}}</style>
<rect width="900" height="480" fill="#F5F7F5"/><text x="42" y="52" class="title">ETA a geofence - MAE en horas (menor es mejor)</text><text x="205" y="124" text-anchor="end" class="label">Boosting ETA</text><rect x="225" y="105" width="570" height="28" rx="7" fill="#E2E8E6"/><rect class="animated-bar" x="225" y="105" width="127.1" height="28" rx="7" fill="#18A999"/><text x="362.1" y="124" class="value">1.88</text><text x="205" y="182" text-anchor="end" class="label">Híbrido físico-residual</text><rect x="225" y="163" width="570" height="28" rx="7" fill="#E2E8E6"/><rect class="animated-bar" x="225" y="163" width="127.5" height="28" rx="7" fill="#2F6BFF"/><text x="362.5" y="182" class="value">1.88</text><text x="205" y="240" text-anchor="end" class="label">Mediana puerto-distancia</text><rect x="225" y="221" width="570" height="28" rx="7" fill="#E2E8E6"/><rect class="animated-bar" x="225" y="221" width="184.8" height="28" rx="7" fill="#F2B134"/><text x="419.8" y="240" class="value">2.73</text><text x="205" y="298" text-anchor="end" class="label">ETA distancia/velocidad</text><rect x="225" y="279" width="570" height="28" rx="7" fill="#E2E8E6"/><rect class="animated-bar" x="225" y="279" width="527.8" height="28" rx="7" fill="#D85C5C"/><text x="762.8" y="298" class="value">7.79</text><text x="42" y="455" class="note">Test futuro 1-7 febrero; 85 viajes. Selección solo en validación. smoke_only.</text></svg>