<svg xmlns="http://www.w3.org/2000/svg" viewBox="0 0 900 480" role="img" aria-label="Port-call state - MAE en km (menor es mejor)">
<style>.title{font:700 24px Inter,Segoe UI,sans-serif;fill:#10272F}.label{font:14px Inter,Segoe UI,sans-serif;fill:#344D56}.value{font:700 14px Inter,Segoe UI,sans-serif;fill:#10272F}.note{font:11px Inter,Segoe UI,sans-serif;fill:#62757C}.animated-bar{transform-origin:225px center;animation:grow .9s ease both}@keyframes grow{from{transform:scaleX(0)}to{transform:scaleX(1)}}</style>
<rect width="900" height="480" fill="#F5F7F5"/><text x="42" y="52" class="title">Port-call state - MAE en km (menor es mejor)</text><text x="205" y="124" text-anchor="end" class="label">GBT + Phys-JEPA ensemble</text><rect x="225" y="105" width="570" height="28" rx="7" fill="#E2E8E6"/><rect class="animated-bar" x="225" y="105" width="305.5" height="28" rx="7" fill="#18A999"/><text x="540.5" y="124" class="value">2.33</text><text x="205" y="182" text-anchor="end" class="label">Trajectory GBT</text><rect x="225" y="163" width="570" height="28" rx="7" fill="#E2E8E6"/><rect class="animated-bar" x="225" y="163" width="346.1" height="28" rx="7" fill="#2F6BFF"/><text x="581.1" y="182" class="value">2.64</text><text x="205" y="240" text-anchor="end" class="label">GRU supervisada</text><rect x="225" y="221" width="570" height="28" rx="7" fill="#E2E8E6"/><rect class="animated-bar" x="225" y="221" width="367.5" height="28" rx="7" fill="#7C5CFC"/><text x="602.5" y="240" class="value">2.80</text><text x="205" y="298" text-anchor="end" class="label">Transformer</text><rect x="225" y="279" width="570" height="28" rx="7" fill="#E2E8E6"/><rect class="animated-bar" x="225" y="279" width="371.7" height="28" rx="7" fill="#F2B134"/><text x="606.7" y="298" class="value">2.83</text><text x="205" y="356" text-anchor="end" class="label">Phys-JEPA directo</text><rect x="225" y="337" width="570" height="28" rx="7" fill="#E2E8E6"/><rect class="animated-bar" x="225" y="337" width="398.8" height="28" rx="7" fill="#D85C5C"/><text x="633.8" y="356" class="value">3.04</text><text x="205" y="414" text-anchor="end" class="label">Cinemática</text><rect x="225" y="395" width="570" height="28" rx="7" fill="#E2E8E6"/><rect class="animated-bar" x="225" y="395" width="527.8" height="28" rx="7" fill="#87989E"/><text x="762.8" y="414" class="value">4.02</text><text x="42" y="455" class="note">Holdout futuro 8-14 febrero; 57 viajes. Core público claim_eligible; no Kaleido.</text></svg>